<svg xmlns="http://www.w3.org/2000/svg" xml:space="preserve" viewBox="0 0 512 512"><path fill="#FFFFFF" d="M480 448s32 0 32-32-32-128-160-128-160 96-160 128 32 32 32 32zm-255.3-32h254.6l.5-.1.3-.1c-.1-8.5-5.4-33-24.3-55C438 340.1 407 320 352 320c-54.9 0-86 20.2-103.7 40.8-19 22.1-24.3 46.6-24.3 55zM352 224c35.4 0 64-28.6 64-64s-28.6-64-64-64-64 28.6-64 64 28.6 64 64 64m96-64c0 53-43 96-96 96s-96-43-96-96 43-96 96-96 96 43 96 96M222 297c-12.8-4-26-6.7-39.4-7.9-7.5-.7-15-1.1-22.6-1.1C32 288 0 384 0 416c0 21.4 10.6 32 32 32h134.9c-4.8-10-7.1-20.9-6.9-32 0-32.3 12.1-65.4 34.9-92.9 7.7-9.4 16.8-18.2 27.1-26.1m-64.6 23c-53.4.6-83.7 20.5-101.1 40.8C37.2 383 32 407.6 32 416h96c0-33.4 10.3-66.7 29.4-96M48 176c0-53 43-96 96-96s96 43 96 96-43 96-96 96-96-43-96-96m96-64c-35.4 0-64 28.6-64 64s28.6 64 64 64 64-28.6 64-64-28.6-64-64-64" style="fill-rule:evenodd;clip-rule:evenodd"/></svg>